<?xml version="1.0" encoding="UTF-8"?>
<svg id="Layer_1" data-name="Layer 1" xmlns="http://www.w3.org/2000/svg" xmlns:xlink="http://www.w3.org/1999/xlink" viewBox="0 0 48 48">
  <defs>
    <style>
      .cls-1, .cls-2, .cls-3, .cls-4, .cls-5, .cls-6, .cls-7, .cls-8, .cls-9, .cls-10 {
        fill: none;
      }

      .cls-1, .cls-2, .cls-3, .cls-5, .cls-6, .cls-7, .cls-8, .cls-9, .cls-10 {
        stroke: #000;
      }

      .cls-2 {
        stroke-width: 2px;
      }

      .cls-3 {
        stroke-width: 1.25px;
      }

      .cls-11 {
        fill: #fff;
      }

      .cls-5 {
        stroke-width: .5px;
      }

      .cls-12 {
        fill: url(#Undulating_Fine_Lines-2);
      }

      .cls-6 {
        stroke-width: 1.5px;
      }

      .cls-13 {
        fill: url(#Undulating_Fine_Lines);
      }

      .cls-7 {
        stroke-width: 2.5px;
      }

      .cls-8 {
        stroke-width: .75px;
      }

      .cls-9 {
        stroke-width: 1.75px;
      }

      .cls-14 {
        clip-path: url(#clippath);
      }

      .cls-10 {
        stroke-width: 2.25px;
      }
    </style>
    <clipPath id="clippath">
      <path class="cls-11" d="M36.54,5.19h-4.75s-3.36-3.36-3.36-3.36c-2.45-2.45-6.41-2.45-8.86,0l-3.36,3.36h-4.75c-3.46,0-6.27,2.81-6.27,6.27v4.75s-3.36,3.36-3.36,3.36c-2.45,2.45-2.45,6.41,0,8.86l3.36,3.36v4.75c0,3.46,2.81,6.27,6.27,6.27h4.75s3.36,3.36,3.36,3.36c2.45,2.45,6.41,2.45,8.86,0l3.36-3.36h4.75c3.46,0,6.27-2.81,6.27-6.27v-4.75s3.36-3.36,3.36-3.36c2.45-2.45,2.45-6.41,0-8.86l-3.36-3.36v-4.75c0-3.46-2.81-6.27-6.27-6.27Z"/>
    </clipPath>
    <pattern id="Undulating_Fine_Lines" data-name="Undulating Fine Lines" x="0" y="0" width="60.75" height="72" patternTransform="translate(-21142.67 -10430.07) rotate(160.31) scale(1.1 .83) skewX(15.39)" patternUnits="userSpaceOnUse" viewBox="0 0 60.75 72">
      <g>
        <rect class="cls-4" width="60.75" height="72"/>
        <line class="cls-7" x1="60.75" x2="60.75" y2="72"/>
        <g>
          <line class="cls-5" x1="30.38" x2="30.38" y2="72"/>
          <line class="cls-8" x1="26.58" x2="26.58" y2="72"/>
          <line class="cls-1" x1="22.78" x2="22.78" y2="72"/>
          <line class="cls-3" x1="18.98" x2="18.98" y2="72"/>
          <line class="cls-6" x1="15.19" x2="15.19" y2="72"/>
          <line class="cls-9" x1="11.39" x2="11.39" y2="72"/>
          <line class="cls-2" x1="7.59" x2="7.59" y2="72"/>
          <line class="cls-10" x1="3.8" x2="3.8" y2="72"/>
          <line class="cls-7" y2="72"/>
          <line class="cls-8" x1="34.17" x2="34.17" y2="72"/>
          <line class="cls-1" x1="37.97" x2="37.97" y2="72"/>
          <line class="cls-3" x1="41.76" x2="41.76" y2="72"/>
          <line class="cls-6" x1="45.56" x2="45.56" y2="72"/>
          <line class="cls-9" x1="49.36" x2="49.36" y2="72"/>
          <line class="cls-2" x1="53.16" x2="53.16" y2="72"/>
          <line class="cls-10" x1="56.95" x2="56.95" y2="72"/>
          <line class="cls-7" x1="60.75" x2="60.75" y2="72"/>
        </g>
        <line class="cls-7" y2="72"/>
      </g>
    </pattern>
    <pattern id="Undulating_Fine_Lines-2" data-name="Undulating Fine Lines" patternTransform="translate(-20161.54 -4084.79) rotate(114.15) scale(.82 1.12) skewX(17.95)" xlink:href="#Undulating_Fine_Lines"/>
  </defs>
  <g>
    <path class="cls-11" d="M36.54,5.19h-4.75s-3.36-3.36-3.36-3.36c-2.45-2.45-6.41-2.45-8.86,0l-3.36,3.36h-4.75c-3.46,0-6.27,2.81-6.27,6.27v4.75s-3.36,3.36-3.36,3.36c-2.45,2.45-2.45,6.41,0,8.86l3.36,3.36v4.75c0,3.46,2.81,6.27,6.27,6.27h4.75s3.36,3.36,3.36,3.36c2.45,2.45,6.41,2.45,8.86,0l3.36-3.36h4.75c3.46,0,6.27-2.81,6.27-6.27v-4.75s3.36-3.36,3.36-3.36c2.45-2.45,2.45-6.41,0-8.86l-3.36-3.36v-4.75c0-3.46-2.81-6.27-6.27-6.27Z"/>
    <g class="cls-14">
      <polygon class="cls-13" points="-48.22 2.68 47.35 -31.52 99.46 31.2 3.89 65.39 -48.22 2.68"/>
      <polygon class="cls-12" points="-41.6 46.98 -10.87 -21.55 93.56 -1.38 62.83 67.15 -41.6 46.98"/>
    </g>
  </g>
  <g>
    <path d="M31.97,38.07l-11.62-12.04-1.36,1.36c0,3,.02,5.54.03,7.16,0,.68,0,1.2,0,1.53h3.2v2h-.51c-.24,0-.99,0-1.84-.02-1.08-.01-2.31-.02-2.81-.02s-1.43.01-2.28.02c-.72,0-1.38.02-1.66.02h-.51v-2h2.66c0-.42,0-1.05.01-1.86.01-2.08.03-5.44.03-9.42s-.02-7.34-.03-9.42c0-.84,0-1.48,0-1.86h-2.66v-2h.51c.29,0,.95,0,1.66.02.85.01,1.79.02,2.28.02s1.56-.01,2.48-.02c.73,0,1.38-.02,1.62-.02h.51v2h-2.65c0,.42,0,1.05-.01,1.86-.01,2.07-.03,5.4-.03,9.36,2.05-2.15,4.69-4.94,8.6-9.15.65-.7,1.5-1.6,1.85-2.07-.01,0-2.69,0-2.69,0v-2.02l.54.03c.82.04,2.72.08,3.53.08.86,0,2.6-.04,3.69-.08l.53-.02v2.02h-1.6c-.52,0-.6.03-1.59,1.02l-9.01,8.97,9.08,8.93c2.11,2.06,3.65,3.47,4.84,4.42l.19.15v1.07h-4.98Z"/>
    <path class="cls-11" d="M34.53,12.02v.98h-1.09c-.74,0-.94.16-1.95,1.17l-9.37,9.33,9.45,9.29c1.87,1.83,3.55,3.4,4.88,4.45v.31h-4.26l-11.83-12.26-1.87,1.87c0,4.53.04,8.04.04,9.02,0,.27.08.39.39.39h2.81v.98c-.55,0-3.75-.04-4.65-.04s-3.32.04-3.94.04v-.98h2.27c.31,0,.39-.12.39-.39,0-1.17.04-5.62.04-11.4s-.04-10.23-.04-11.4c0-.27-.08-.39-.39-.39h-2.27v-.98c.63,0,3.05.04,3.94.04s3.55-.04,4.1-.04v.98h-2.27c-.31,0-.39.12-.39.39,0,1.17-.04,5.62-.04,11.4v1.21c2.62-2.73,5.39-5.66,9.49-10.08,1.68-1.8,2.15-2.34,2.15-2.62,0-.2-.16-.31-.7-.31h-2.15v-.98c.82.04,2.73.08,3.55.08.86,0,2.62-.04,3.71-.08M26.25,10.95v3.07h2.1c-.37.41-.8.87-1.12,1.21-3.37,3.63-5.8,6.21-7.72,8.22,0-3.39.02-6.23.03-8.08,0-.54,0-1,0-1.36h1.64s1.02,0,1.02,0v-3.02h-1.02c-.24,0-.89,0-1.62.02-.92.01-1.98.02-2.48.02s-1.42-.01-2.28-.02c-.72,0-1.38-.02-1.67-.02h-1.02v3.02h2.66c0,.36,0,.81,0,1.36.01,2.08.03,5.43.03,9.42s-.02,7.34-.03,9.42c0,.54,0,1,0,1.36h-1.64s-1.02,0-1.02,0v3.02h1.02c.29,0,.95,0,1.67-.02.85-.01,1.79-.02,2.28-.02s1.73.01,2.81.02c.85,0,1.6.02,1.84.02h1.02v-3.02h-3.21c0-.28,0-.62,0-1.02-.01-1.58-.03-4.04-.03-6.95l.84-.84,11.11,11.51.3.31h5.71v-1.83l-.39-.31c-1.16-.92-2.73-2.36-4.8-4.38l-8.71-8.57,8.64-8.61c.87-.87.88-.87,1.23-.87h2.11v-3.06l-1.06.04c-1.03.04-2.8.08-3.67.08-.78,0-2.7-.04-3.51-.08l-1.07-.05h0Z"/>
  </g>
</svg>